<?xml version="1.0" standalone="no"?>
<!DOCTYPE svg PUBLIC "-//W3C//DTD SVG 20010904//EN"
 "http://www.w3.org/TR/2001/REC-SVG-20010904/DTD/svg10.dtd">
<svg version="1.0" xmlns="http://www.w3.org/2000/svg"
 width="600.000000pt" height="600.000000pt" viewBox="0 0 600.000000 600.000000"
 preserveAspectRatio="xMidYMid meet">
<metadata>
Created by potrace 1.11, written by Peter Selinger 2001-2013
</metadata>
<g transform="translate(0.000000,600.000000) scale(0.100000,-0.100000)"
fill="#000000" stroke="none">
<path d="M2937 5931 c-28 -15 -45 -31 -42 -38 3 -7 8 -20 11 -28 4 -9 0 -15
-9 -15 -8 0 -17 -6 -20 -12 -3 -9 -11 -5 -24 11 -17 20 -22 22 -41 12 -13 -7
-20 -16 -17 -22 4 -5 0 -9 -7 -9 -7 0 -41 -14 -75 -31 -44 -22 -63 -37 -63
-50 0 -11 -16 -29 -37 -43 -31 -20 -40 -22 -49 -11 -13 17 -59 -3 -59 -26 0
-9 -8 -27 -17 -40 -16 -24 -16 -24 -31 -4 -14 18 -18 18 -41 6 -24 -13 -31
-28 -27 -58 2 -16 -1 -16 -33 -2 -20 10 -31 8 -63 -12 -21 -12 -41 -27 -44
-31 -3 -5 -14 -10 -25 -12 -21 -4 -87 -44 -116 -70 -10 -9 -22 -16 -28 -16 -5
0 -28 -9 -50 -21 -30 -16 -40 -27 -40 -45 0 -35 -43 -60 -76 -45 -21 9 -26 8
-31 -7 -10 -28 -46 -52 -60 -40 -9 7 -27 1 -65 -23 -29 -17 -78 -46 -108 -62
-77 -42 -111 -67 -105 -77 3 -5 -8 -19 -24 -32 -15 -13 -36 -36 -46 -51 l-18
-28 -15 23 c-8 13 -17 25 -18 27 -2 2 -10 -2 -19 -9 -10 -8 -12 -17 -6 -28 6
-10 4 -24 -7 -40 l-15 -24 -13 24 c-12 20 -13 21 -14 4 0 -11 7 -27 16 -37 18
-20 13 -58 -9 -81 -7 -7 -12 -19 -11 -25 1 -7 2 -22 3 -33 0 -11 7 -20 14 -20
7 0 18 -14 24 -30 10 -28 10 -30 -6 -25 -36 11 -56 -63 -23 -87 29 -20 33 -34
21 -62 -10 -20 -15 -23 -26 -15 -10 9 -13 6 -14 -17 -2 -47 1 -58 24 -76 19
-15 20 -18 4 -18 -21 0 -31 -22 -30 -64 0 -18 5 -30 12 -28 7 1 9 -6 5 -23 -6
-25 10 -36 19 -12 3 7 6 7 6 1 1 -6 -8 -19 -19 -29 -31 -28 -27 -95 7 -135 24
-29 25 -33 10 -42 -10 -5 -15 -13 -12 -19 4 -5 -1 -12 -9 -15 -22 -8 -23 -94
-1 -94 19 0 19 -4 1 -43 -23 -52 -24 -61 -8 -92 21 -40 22 -64 4 -82 -8 -8
-15 -30 -16 -50 -1 -28 5 -39 26 -55 27 -19 27 -20 13 -49 -9 -16 -20 -27 -25
-24 -6 4 -10 -12 -10 -38 0 -36 4 -46 20 -50 26 -7 26 -42 1 -59 -17 -12 -17
-16 -5 -33 18 -25 18 -35 -2 -35 -14 0 -16 -8 -10 -52 8 -61 8 -74 1 -143 -4
-39 -1 -53 12 -63 13 -9 14 -12 2 -12 -9 0 -14 -11 -14 -30 -1 -21 3 -29 12
-26 16 7 16 1 2 -27 -14 -26 -20 -117 -7 -117 5 0 17 -19 28 -42 19 -43 13
-62 -17 -51 -10 4 -13 -5 -11 -36 1 -46 4 -48 37 -25 19 14 25 14 32 3 23 -36
-9 -97 -43 -84 -12 5 -14 0 -10 -20 4 -24 6 -25 21 -11 16 14 19 13 40 -15 17
-22 20 -33 12 -43 -6 -8 -9 -21 -5 -30 4 -11 2 -15 -7 -11 -8 3 -20 1 -28 -4
-12 -8 -12 -14 -1 -40 7 -17 16 -31 20 -31 4 0 10 -9 13 -19 2 -11 17 -22 35
-25 27 -7 29 -9 18 -31 -6 -14 -17 -25 -23 -25 -17 0 -16 -11 3 -38 9 -13 25
-22 37 -21 44 4 53 -1 52 -26 0 -14 -6 -30 -14 -34 -11 -7 -10 -13 5 -35 15
-20 25 -25 44 -20 32 7 31 7 58 -1 25 -8 28 -29 8 -66 -12 -23 -12 -29 1 -42
14 -13 13 -16 -8 -22 -21 -7 -21 -8 12 -22 33 -14 33 -15 15 -29 -11 -8 -30
-14 -44 -14 -13 0 -21 -4 -18 -9 4 -5 -9 -22 -26 -37 -28 -23 -29 -26 -10 -22
32 9 19 -5 -26 -27 -36 -18 -39 -23 -41 -63 -1 -43 -1 -44 27 -40 l29 4 -10
-40 c-5 -23 -17 -49 -25 -58 -14 -16 -13 -18 5 -18 24 0 58 -68 42 -85 -13
-14 -11 -34 6 -51 8 -9 15 -12 15 -7 0 5 13 14 29 20 24 9 31 8 35 -3 3 -8 10
-14 16 -14 6 0 17 -6 25 -12 11 -11 10 -17 -7 -35 l-21 -22 29 5 c16 3 38 14
50 25 11 10 26 19 33 19 7 0 10 4 6 9 -3 5 6 22 20 37 21 23 26 24 31 10 3 -9
4 -25 1 -36 -3 -13 0 -20 9 -20 7 0 38 -11 68 -25 65 -30 116 -32 139 -7 34
37 19 58 -47 69 -26 4 -28 3 -17 -10 10 -13 8 -18 -13 -33 -22 -14 -31 -14
-55 -4 -36 15 -49 40 -20 40 11 0 18 4 14 9 -3 5 4 13 16 16 34 11 68 56 63
83 -7 35 3 58 26 59 17 2 19 -3 15 -28 l-6 -30 43 25 c34 20 44 33 48 58 4 24
10 33 25 34 11 1 28 5 38 9 12 5 17 2 17 -10 0 -12 5 -15 18 -10 9 3 34 12 54
18 28 9 39 18 43 39 9 40 29 48 23 9 -4 -30 6 -43 15 -18 3 6 13 -7 23 -30 11
-24 24 -43 30 -43 6 0 18 -16 28 -36 15 -33 15 -38 1 -60 -8 -13 -19 -24 -24
-24 -15 0 1 -41 20 -53 21 -13 25 -48 8 -78 -8 -16 -13 -18 -25 -8 -11 9 -14
8 -14 -7 0 -11 9 -25 20 -32 27 -16 26 -32 -2 -24 -17 4 -20 2 -15 -11 3 -8 9
-32 13 -51 3 -20 11 -36 16 -36 5 0 8 -8 7 -17 -1 -10 0 -22 1 -28 1 -5 3 -17
4 -25 0 -8 7 -14 14 -12 8 1 11 -2 7 -7 -3 -6 1 -24 10 -42 10 -17 13 -38 9
-47 -4 -10 -6 -22 -5 -28 0 -6 -5 -17 -13 -23 -11 -9 -12 -19 -4 -44 12 -39
16 -117 6 -117 -5 0 -8 -5 -8 -11 0 -6 7 -8 16 -5 14 5 15 4 4 -8 -14 -18 -20
-131 -7 -166 4 -13 14 -28 20 -32 8 -5 6 -8 -6 -8 -13 0 -17 -6 -15 -22 2 -15
10 -23 23 -23 31 0 31 -46 0 -94 l-26 -41 28 -26 c15 -14 29 -39 31 -55 3 -28
1 -29 -17 -20 -27 15 -28 15 -25 -21 1 -18 3 -44 3 -58 l2 -25 24 28 c25 28
34 26 16 -2 -7 -11 -3 -20 12 -33 l21 -19 -25 -17 c-13 -9 -27 -16 -31 -14 -5
1 -8 -9 -8 -23 0 -19 9 -31 31 -43 17 -9 41 -25 53 -34 20 -17 20 -19 3 -32
-15 -12 -15 -15 -3 -26 9 -6 33 -14 55 -17 32 -4 40 -2 45 13 15 50 19 244 18
744 -2 591 7 671 33 300 10 -142 15 -296 20 -694 3 -219 7 -401 9 -405 3 -5
126 -6 192 -2 8 1 11 167 12 574 2 581 6 727 23 759 12 22 38 13 44 -16 15
-70 18 -158 21 -701 1 -330 3 -605 3 -611 1 -17 71 -6 101 15 42 30 66 140 76
341 1 36 5 180 8 320 14 605 19 717 35 733 12 12 42 11 74 -2 l29 -11 -21 -33
c-40 -62 -51 -96 -58 -184 -8 -103 -8 -1172 0 -1180 8 -8 62 12 62 23 0 5 4
15 9 22 4 7 3 19 -3 26 -9 10 -5 17 15 31 25 16 27 16 50 -6 23 -22 24 -24 8
-36 -10 -7 -14 -16 -10 -20 12 -12 64 58 74 99 5 21 7 37 3 36 -20 -2 -30 5
-41 32 -11 27 -11 32 6 45 11 8 27 15 37 15 17 0 20 5 20 35 0 32 -4 36 -25
33 -16 -2 -22 1 -19 12 2 8 4 22 5 31 0 10 7 14 18 11 12 -3 18 1 18 12 0 10
5 14 10 11 19 -12 11 75 -9 96 -19 20 -26 69 -10 69 5 0 9 7 9 15 0 8 6 14 13
12 8 -1 13 13 15 41 3 46 -2 51 -30 25 -17 -15 -18 -15 -18 5 0 34 22 72 39
70 16 -3 18 11 7 79 -2 18 -1 35 3 37 4 3 8 25 10 50 1 36 -3 49 -24 68 l-25
24 32 34 c30 33 48 80 31 80 -5 0 -10 12 -11 27 -1 15 -7 30 -13 34 -10 6 26
23 43 20 14 -2 30 41 25 65 -2 14 1 28 7 32 7 4 19 33 28 64 l15 58 -33 0
c-19 0 -35 3 -35 8 -1 4 -2 20 -3 35 -2 26 0 28 34 25 21 -2 34 -8 33 -16 -2
-6 2 -12 7 -12 6 0 10 10 11 23 6 171 56 245 178 263 20 3 45 7 57 9 39 6 111
-16 135 -41 25 -26 29 -73 19 -193 -3 -37 0 -47 21 -64 19 -15 33 -18 69 -13
48 7 157 68 152 86 -1 6 5 13 15 17 25 10 54 41 43 48 -16 10 -11 25 8 25 24
0 82 61 65 67 -20 7 -17 73 3 73 24 0 44 26 42 54 -2 24 -3 24 -21 8 -17 -15
-21 -15 -45 -1 -29 16 -40 45 -23 62 7 7 18 5 36 -7 l26 -17 -5 28 c-2 15 -5
41 -5 57 -1 23 -4 26 -15 17 -10 -9 -17 -6 -30 13 -9 14 -16 29 -16 33 0 10
42 38 53 35 14 -4 28 52 22 85 -3 20 -2 33 4 33 6 0 13 12 17 28 3 15 8 36 11
46 4 14 1 18 -11 13 -26 -10 -28 10 -2 31 16 12 30 40 40 76 14 54 13 59 -5
77 -25 25 -24 29 6 29 19 0 26 7 31 28 3 15 8 35 11 46 4 13 1 16 -8 11 -9 -6
-10 -3 -5 10 5 14 0 24 -16 37 l-23 18 32 -9 c32 -9 33 -9 39 27 4 20 9 46 11
57 2 11 5 31 7 45 2 14 7 48 11 76 5 35 4 54 -4 58 -17 11 -13 42 8 77 18 30
19 35 5 68 -13 32 -13 37 1 47 17 12 28 124 13 124 -4 0 -5 6 -2 14 3 8 1 17
-5 21 -16 9 -13 54 4 72 19 19 16 73 -6 93 -9 8 -20 32 -23 52 -6 32 -3 39 19
54 14 9 25 26 25 37 0 16 -3 18 -11 10 -7 -7 -25 -9 -40 -6 l-29 6 0 -186 c0
-189 -5 -247 -22 -247 -6 0 -24 6 -41 14 -309 137 -416 186 -505 229 -51 25
-54 10 40 217 27 58 46 101 143 315 15 33 35 78 45 100 17 40 112 242 217 465
30 63 64 136 76 162 21 44 50 73 46 45 -1 -6 -1 -73 0 -147 1 -105 4 -131 13
-115 6 11 12 22 14 24 2 2 15 -4 29 -13 l25 -16 0 42 c0 33 -3 39 -12 30 -20
-20 -28 -14 -18 14 13 33 14 31 -17 48 -29 16 -28 16 27 20 9 1 16 13 18 29 3
23 -2 29 -27 38 -29 10 -30 12 -16 32 19 27 19 38 0 31 -8 -4 -15 -4 -15 0 0
10 43 45 50 41 11 -7 6 27 -7 51 -7 12 -24 25 -37 28 -31 8 -26 24 17 52 41
27 43 54 6 90 -16 15 -29 34 -29 41 0 22 -44 37 -69 23 -19 -10 -25 -8 -44 17
-12 15 -22 32 -22 38 -1 20 -16 34 -45 40 -17 4 -30 10 -30 15 0 10 -87 60
-104 60 -6 0 -4 -5 4 -10 12 -8 9 -10 -11 -10 -14 0 -34 9 -44 20 -17 19 -17
20 1 20 19 1 19 1 0 15 -18 14 -21 13 -37 -11 -17 -26 -17 -26 -24 -5 -3 11
-14 21 -24 21 -10 0 -17 9 -18 23 -1 12 -14 33 -30 46 l-27 24 -12 -28 c-11
-28 -12 -28 -18 -7 -4 12 -5 26 -1 32 3 5 -20 26 -51 46 -42 27 -58 33 -64 23
-6 -9 -17 -4 -41 21 -18 18 -51 38 -73 44 -23 7 -41 18 -41 26 0 17 -75 62
-93 55 -7 -2 -30 13 -52 35 -22 22 -44 40 -50 40 -5 0 -44 21 -86 46 -61 37
-78 44 -85 33 -7 -11 -9 -10 -9 4 0 9 -5 17 -10 17 -6 0 -22 12 -35 26 -14 15
-25 22 -25 15 0 -9 -5 -9 -21 -1 -11 7 -27 9 -34 6 -8 -3 -17 -1 -20 4 -4 6
-1 10 4 10 21 0 11 18 -21 38 -29 19 -33 19 -44 4 -18 -24 -64 -1 -64 32 0 17
-10 30 -35 45 -34 20 -36 20 -53 3 -14 -14 -24 -16 -45 -9 -22 7 -26 13 -21
33 3 13 5 23 3 23 -2 -1 -25 -13 -52 -28z m218 -146 c39 -23 78 -44 87 -48 9
-3 69 -38 133 -76 64 -39 117 -71 119 -71 2 0 34 -18 70 -40 36 -22 68 -40 71
-40 2 0 28 -15 57 -33 29 -19 60 -37 68 -40 8 -4 33 -18 55 -32 22 -14 51 -31
65 -38 14 -6 27 -14 30 -18 3 -3 12 -9 20 -12 8 -4 29 -15 45 -26 17 -10 46
-27 65 -38 96 -55 146 -84 160 -93 8 -5 47 -27 85 -50 39 -22 88 -51 110 -65
22 -14 48 -28 58 -31 9 -4 17 -10 17 -15 0 -5 0 -12 0 -16 0 -9 -20 -9 -120 1
-41 4 -113 9 -160 11 -47 2 -123 7 -170 10 -47 4 -105 8 -130 10 -25 2 -76 6
-115 9 -38 4 -110 9 -160 11 -49 3 -103 8 -120 10 -16 2 -68 7 -115 10 -296
19 -309 20 -323 34 -13 13 -14 36 -17 413 -1 163 1 302 4 307 9 13 27 6 111
-44z m-197 -100 c7 -358 7 -567 1 -577 -10 -16 0 -15 -317 -33 -46 -3 -105 -7
-130 -9 -56 -6 -247 -18 -317 -21 -27 -1 -88 -6 -135 -10 -112 -9 -188 -14
-345 -21 -71 -3 -139 -7 -150 -8 -54 -3 -9 30 206 157 129 76 241 140 249 144
8 4 47 25 85 48 39 23 113 66 165 96 52 29 97 57 98 61 2 5 8 8 14 8 6 0 36
15 67 34 31 19 74 45 97 57 22 13 107 62 188 109 197 114 189 110 206 107 12
-2 15 -27 18 -142z m-53 -677 c5 -5 -70 -155 -116 -232 -10 -17 -29 -51 -42
-76 -13 -25 -62 -113 -109 -195 -111 -195 -218 -386 -218 -390 0 -2 -21 -38
-46 -81 -25 -43 -50 -87 -55 -98 -5 -12 -13 -28 -19 -36 -11 -18 -113 -199
-124 -220 -4 -8 -15 -29 -24 -45 -70 -126 -76 -132 -91 -92 -5 12 -27 60 -49
107 -53 112 -108 231 -142 305 -27 60 -49 107 -130 280 -24 50 -51 108 -60
130 -10 22 -34 76 -55 120 -50 106 -88 189 -162 354 -13 30 -20 58 -16 62 11
11 54 17 173 24 124 8 191 13 270 20 36 3 106 8 155 11 157 9 208 12 280 20
39 3 93 8 120 9 28 2 75 5 105 9 31 3 98 8 150 11 52 4 96 8 97 9 5 5 103 0
108 -6z m385 -2 c47 -4 117 -9 155 -12 39 -3 90 -7 115 -9 25 -2 83 -6 130
-10 47 -4 110 -8 140 -10 30 -2 89 -6 130 -9 41 -4 116 -8 165 -11 50 -2 90
-4 90 -5 0 -1 18 -3 40 -4 22 -2 81 -7 130 -11 50 -4 106 -9 126 -10 48 -3 61
-12 50 -33 -5 -9 -10 -20 -10 -24 -3 -12 -47 -111 -95 -212 -112 -235 -151
-318 -188 -401 -22 -49 -44 -95 -49 -101 -5 -6 -6 -14 -2 -17 3 -4 1 -7 -5 -7
-7 0 -12 -6 -12 -12 0 -7 -15 -44 -34 -83 -56 -114 -185 -385 -213 -447 -14
-32 -29 -58 -32 -58 -9 0 -52 73 -160 274 -17 33 -35 64 -40 70 -4 6 -32 56
-61 111 -29 55 -61 114 -70 130 -9 17 -32 57 -50 90 -18 33 -62 112 -98 175
-36 63 -76 135 -90 160 -14 25 -41 74 -62 110 -20 36 -39 72 -43 80 -4 8 -27
51 -52 95 -25 44 -57 104 -72 133 -39 75 -45 72 167 58z m-229 -106 c18 -36
36 -67 39 -70 3 -3 13 -21 22 -40 10 -19 34 -64 53 -100 45 -79 159 -289 169
-310 4 -8 12 -24 19 -35 7 -11 34 -60 61 -110 27 -49 57 -103 66 -120 9 -16
32 -57 50 -90 18 -33 43 -78 55 -100 12 -22 37 -67 55 -100 60 -111 76 -140
144 -263 38 -67 66 -125 63 -128 -6 -6 -1718 -6 -1724 0 -2 2 17 41 43 87 25
46 70 127 99 180 30 54 72 129 94 169 23 39 41 73 41 75 0 2 13 26 29 53 16
27 44 76 62 108 18 33 40 73 49 89 9 17 33 59 52 95 19 36 47 85 62 110 14 25
38 68 51 97 14 28 30 55 35 58 6 3 10 15 10 25 0 10 4 20 8 22 5 2 24 32 44
68 19 36 56 102 81 147 26 45 47 87 47 93 0 5 5 10 10 10 6 0 10 7 10 15 0 8
9 24 21 36 26 26 33 20 80 -71z m-1597 -265 c14 -25 45 -90 70 -143 75 -164
116 -253 162 -350 24 -51 44 -94 44 -96 0 -3 21 -49 46 -103 25 -54 56 -120
69 -148 13 -27 40 -86 60 -130 20 -44 49 -108 65 -141 16 -34 32 -73 35 -86 7
-26 11 -24 -205 -121 -36 -16 -85 -38 -110 -49 -211 -97 -264 -118 -271 -107
-11 18 -11 1519 0 1519 5 0 21 -20 35 -45z m2371 -1297 c8 -7 -75 -124 -190
-269 -33 -42 -67 -87 -75 -99 -8 -13 -27 -37 -41 -54 -14 -17 -47 -60 -74 -96
-27 -36 -52 -67 -55 -70 -3 -3 -25 -32 -50 -65 -65 -87 -73 -96 -92 -114 -10
-8 -18 -19 -18 -24 0 -5 -6 -14 -12 -22 -7 -7 -47 -57 -88 -111 -41 -54 -87
-112 -102 -128 l-27 -31 -39 40 c-21 22 -60 69 -87 105 -53 70 -66 86 -106
134 -14 17 -42 55 -63 84 -21 28 -41 52 -45 52 -4 0 -14 12 -22 27 -8 15 -21
35 -29 44 -17 19 -20 22 -123 154 -43 55 -84 107 -90 115 -7 8 -35 44 -62 80
-27 36 -77 100 -112 142 -34 42 -64 83 -65 90 -2 9 15 14 62 18 102 8 1597 6
1605 -2z m-1773 -22 c7 -7 27 -30 43 -51 17 -21 38 -46 48 -56 9 -11 17 -22
17 -27 0 -4 10 -18 23 -32 12 -14 83 -106 156 -205 74 -99 140 -185 148 -191
7 -6 13 -16 13 -22 0 -6 4 -12 8 -14 4 -1 62 -75 127 -163 66 -88 123 -162
127 -163 5 -2 6 -8 2 -13 -6 -11 -80 28 -259 138 -11 7 -27 15 -35 19 -8 4
-79 45 -157 91 -78 45 -147 83 -152 83 -6 0 -11 5 -11 10 0 6 -4 10 -10 10 -5
0 -50 25 -101 55 -50 30 -93 55 -94 55 -2 0 -38 20 -79 45 -42 25 -81 45 -85
45 -5 0 -11 4 -13 8 -1 4 -39 28 -83 51 -44 24 -100 57 -124 74 l-44 30 74 35
c41 19 112 52 159 74 47 22 117 55 155 72 39 18 81 37 95 43 33 15 36 15 52
-1z m2040 -47 c299 -138 366 -172 361 -185 -4 -12 -293 -189 -338 -207 -11 -4
-22 -11 -25 -15 -3 -4 -16 -13 -30 -19 -14 -7 -47 -25 -75 -41 -27 -16 -158
-91 -290 -166 -132 -75 -249 -142 -260 -148 -11 -6 -40 -23 -65 -37 -25 -14
-47 -27 -50 -30 -6 -7 -98 -51 -106 -51 -4 0 72 106 86 120 3 3 52 68 109 145
58 77 110 145 115 152 6 6 36 46 66 88 47 66 115 156 163 215 7 8 28 37 47 65
60 85 137 175 150 175 5 0 69 -28 142 -61z m-2329 -420 c78 -45 162 -93 187
-107 25 -14 61 -35 80 -47 34 -21 545 -316 622 -359 21 -12 38 -24 38 -28 0
-20 -193 -66 -280 -66 -96 0 -361 53 -544 109 -108 33 -169 115 -231 309 -35
112 -47 270 -19 270 3 0 70 -37 147 -81z m2626 59 c9 -25 8 -110 -3 -175 -15
-92 -76 -235 -128 -298 -47 -57 -150 -100 -342 -146 -259 -60 -400 -61 -576
-1 l-53 18 34 21 c19 11 54 32 79 46 25 13 106 59 180 102 74 42 160 90 190
106 30 16 177 101 325 189 149 87 273 159 278 159 4 1 11 -9 16 -21z m-1425
-755 c10 -26 -63 -261 -102 -327 -24 -41 -42 -39 -69 9 -34 59 -29 86 27 172
27 41 54 91 59 110 15 52 38 75 62 60 10 -6 21 -17 23 -24z m168 -63 c55 -79
106 -179 103 -201 -10 -61 -48 -121 -71 -112 -38 14 -102 200 -99 288 5 127
-2 124 67 25z"/>
<path d="M3131 5448 c2 -128 5 -240 7 -249 2 -11 15 -15 45 -15 23 0 87 -3
142 -8 155 -13 303 -23 440 -31 44 -2 80 -5 80 -6 0 -1 18 -2 40 -4 22 -1 77
-6 123 -10 45 -4 82 -3 82 1 0 5 -43 34 -96 64 -53 30 -109 63 -125 73 -16 9
-42 25 -58 35 -43 25 -310 179 -356 205 -22 12 -42 24 -45 27 -10 10 -65 41
-82 47 -10 3 -18 9 -18 13 0 4 -11 11 -25 14 -14 4 -25 11 -25 16 0 6 -5 10
-10 10 -6 0 -28 11 -50 25 -74 47 -72 54 -69 -207z"/>
<path d="M2846 5682 c-2 -4 -29 -21 -58 -36 -55 -29 -84 -46 -184 -106 -89
-53 -88 -52 -161 -94 -37 -21 -93 -52 -123 -69 -30 -16 -62 -36 -71 -43 -8 -8
-18 -14 -22 -14 -3 0 -67 -36 -142 -80 -75 -44 -139 -80 -144 -80 -4 0 -16 -9
-26 -20 -19 -21 -18 -21 46 -15 35 3 98 7 139 10 41 2 118 7 170 11 52 4 136
8 185 9 50 1 115 5 145 9 30 3 99 8 153 11 54 2 102 7 108 10 6 4 9 104 8 251
-1 217 -6 273 -23 246z"/>
<path d="M2629 4906 c-2 -3 -45 -7 -94 -10 -50 -3 -130 -8 -180 -11 -49 -4
-108 -7 -130 -9 -22 -2 -80 -7 -130 -10 -49 -4 -112 -9 -140 -11 -143 -11
-271 -20 -342 -23 -53 -2 -63 31 90 -292 81 -171 110 -235 113 -245 1 -5 23
-55 49 -110 104 -221 133 -284 171 -372 21 -51 44 -93 49 -93 9 0 92 140 172
290 16 30 40 73 53 95 67 117 210 377 280 510 14 28 45 82 68 122 23 39 42 76
42 81 0 6 3 12 8 14 11 5 41 66 34 72 -6 7 -107 8 -113 2z"/>
<path d="M3260 4905 c0 -8 56 -115 110 -210 13 -22 32 -58 43 -80 11 -22 37
-69 57 -105 21 -36 55 -99 77 -140 88 -165 127 -236 142 -260 9 -14 30 -50 46
-80 16 -30 42 -77 57 -105 15 -27 46 -85 69 -127 23 -43 45 -78 50 -78 7 0
119 221 119 235 0 3 74 161 140 300 94 197 158 333 173 365 9 19 34 74 56 123
l40 87 -62 1 c-34 1 -71 3 -82 4 -11 2 -69 6 -130 9 -60 3 -126 8 -145 11 -19
3 -71 8 -115 10 -44 3 -109 7 -145 10 -36 3 -99 7 -140 10 -41 3 -91 7 -110 9
-119 12 -250 17 -250 11z"/>
<path d="M2983 4783 c-4 -10 -21 -42 -40 -71 -18 -29 -33 -59 -33 -66 0 -8 -4
-16 -8 -18 -8 -3 -102 -166 -182 -313 -18 -33 -52 -95 -76 -137 -24 -43 -44
-82 -44 -88 0 -5 -4 -10 -10 -10 -5 0 -10 -4 -10 -9 0 -5 -22 -47 -48 -93 -50
-87 -91 -160 -163 -293 -73 -137 -79 -148 -73 -154 9 -9 1404 -8 1404 2 0 13
-266 506 -279 517 -3 3 -17 28 -31 55 -45 87 -120 226 -200 365 -43 74 -79
140 -81 146 -10 28 -105 184 -112 184 -4 0 -11 -8 -14 -17z"/>
<path d="M1517 4263 c-3 -5 -6 -225 -6 -490 -1 -536 -6 -501 66 -464 50 26
195 93 208 97 6 1 35 15 66 31 l56 28 -30 65 c-16 36 -57 124 -89 195 -33 72
-96 203 -139 291 -43 89 -79 169 -79 177 0 8 -7 20 -15 27 -8 7 -15 18 -15 26
0 15 -17 28 -23 17z"/>
<path d="M2535 3252 c-93 -1 -176 -4 -183 -7 -9 -3 2 -24 35 -67 26 -35 50
-65 54 -68 10 -10 118 -147 205 -261 186 -244 327 -424 342 -436 25 -21 35
-15 72 38 19 28 40 56 45 62 6 7 30 39 55 72 25 33 50 65 55 71 6 6 42 53 80
104 39 50 98 127 133 170 34 44 62 84 62 89 0 6 6 14 13 18 8 4 33 35 57 68
24 33 46 62 50 65 11 9 62 80 59 81 -8 3 -967 4 -1134 1z"/>
<path d="M1914 3176 c-50 -24 -102 -47 -115 -51 -31 -10 -69 -35 -69 -46 0 -4
30 -25 68 -46 37 -20 69 -41 70 -45 2 -4 8 -8 13 -8 4 0 86 -45 181 -101 292
-171 368 -212 375 -206 5 5 -93 142 -124 175 -7 7 -13 16 -13 20 0 4 -12 21
-28 37 -15 17 -43 52 -62 78 -96 131 -182 237 -193 237 -7 0 -53 -20 -103 -44z"/>
<path d="M3942 3182 c-26 -33 -83 -109 -179 -241 -10 -13 -23 -29 -28 -35 -6
-6 -24 -29 -40 -51 -46 -61 -49 -65 -67 -86 -10 -10 -18 -21 -18 -24 0 -3 -10
-19 -22 -35 -29 -40 -16 -49 30 -21 20 12 51 29 67 37 30 15 57 30 175 99 133
78 146 85 170 97 14 7 60 34 102 60 43 27 81 48 85 48 12 0 69 48 63 53 -9 9
-263 127 -285 133 -17 4 -29 -3 -53 -34z"/>
<path d="M4589 4373 c-8 -35 6 -787 14 -760 5 19 14 27 30 27 15 0 18 3 9 8
-10 7 -8 12 6 26 17 14 19 31 19 111 0 78 -3 98 -18 114 -16 17 -17 24 -7 46
6 14 14 25 18 25 3 0 7 29 8 65 1 36 -2 65 -7 65 -15 0 -19 60 -4 71 16 14 17
55 1 65 -7 5 -8 3 -3 -6 5 -9 4 -11 -3 -6 -15 9 -16 46 -1 46 5 0 7 -4 4 -10
-3 -5 -2 -10 4 -10 5 0 9 24 8 53 -2 49 -3 52 -26 49 -14 -1 -22 1 -18 4 7 8
-11 34 -23 34 -4 0 -9 -8 -11 -17z"/>
<path d="M4472 4288 c-7 -7 -12 -18 -12 -25 0 -7 -8 -27 -18 -45 -10 -18 -25
-51 -34 -73 -9 -22 -50 -111 -92 -198 -42 -87 -76 -160 -76 -163 0 -4 -13 -34
-29 -68 -15 -33 -41 -88 -56 -121 -15 -33 -33 -73 -41 -89 -8 -16 -14 -34 -14
-40 0 -6 44 -31 98 -55 53 -25 139 -64 191 -88 51 -24 96 -43 100 -43 6 0 5
1009 -2 1016 -2 2 -9 -2 -15 -8z"/>
<path d="M1557 2014 c-30 -28 -32 -35 -15 -52 19 -19 30 -14 26 12 -1 13 3 31
11 40 23 27 7 27 -22 0z"/>
</g>
</svg>
